<svg width="0" height="0" class="hidden">
  <symbol xmlns="http://www.w3.org/2000/svg" viewBox="0 0 27 20" id="phone">
    <path opacity="0.24" fill-rule="evenodd" clip-rule="evenodd" d="M22.2082 2.86766L18.4091 5.68182V2.50266C18.4091 1.11814 17.3104 0 15.955 0H2.4541C1.09644 0 0 1.12048 0 2.50266V17.4973C0 18.8819 1.09874 20 2.4541 20H15.955C17.3126 20 18.4091 18.8795 18.4091 17.4973V14.3182L22.2082 17.1323C22.48 17.3336 22.9801 17.5 23.32 17.5H25.7691C26.456 17.5 27 16.939 27 16.2469V3.75309C27 3.06064 26.4489 2.5 25.7691 2.5H23.32C22.9732 2.5 22.4823 2.66461 22.2082 2.86766ZM2.45455 17.5V2.5H15.9545V17.5H2.45455ZM4.90909 13.75C4.90909 13.0596 5.45956 12.5 6.13996 12.5H12.2691C12.9489 12.5 13.5 13.0548 13.5 13.75C13.5 14.4404 12.9495 15 12.2691 15H6.13996C5.46017 15 4.90909 14.4452 4.90909 13.75ZM23.5108 14.9998L18.424 11.238L18.4243 8.76179L23.5073 4.9966L24.5455 4.99818V14.9988L23.5108 14.9998Z"></path>
  </symbol>

  <symbol xmlns="http://www.w3.org/2000/svg" viewBox="0 0 19 19" id="search">
    <path fill-rule="evenodd" clip-rule="evenodd" d="M17.9005 16.4865L14.3205 12.9065L14.3195 12.9055C16.9095 9.569 16.4594 4.79387 13.2916 2.00007C10.1238 -0.793727 5.32983 -0.643497 2.34317 2.34317C-0.643497 5.32983 -0.793727 10.1238 2.00007 13.2916C4.79387 16.4594 9.569 16.9095 12.9055 14.3195L16.4855 17.8995C16.7364 18.1596 17.1081 18.2642 17.4578 18.1729C17.8075 18.0816 18.0808 17.8088 18.1725 17.4592C18.2643 17.1097 18.1603 16.7378 17.9005 16.4865ZM13.1967 11.0005C12.1249 12.8569 10.1441 14.0005 8.00052 14.0005C4.68681 14.0005 2.00052 11.3142 2.00052 8.00052C2.00052 4.68681 4.68681 2.00052 8.00052 2.00052C10.1441 2.00052 12.1249 3.14411 13.1967 5.00052C14.2685 6.85693 14.2685 9.14411 13.1967 11.0005Z" ></path>
  </symbol>

  <symbol xmlns="http://www.w3.org/2000/svg" viewBox="0 0 21 21" id="combined-shape">
    <path opacity="0.24" fill-rule="evenodd" clip-rule="evenodd" d="M0 2.5C0 3.88071 1.11929 5 2.5 5C3.88071 5 5 3.88071 5 2.5C5 1.11929 3.88071 0 2.5 0C1.11929 0 0 1.11929 0 2.5ZM2.5 13C1.11929 13 0 11.8807 0 10.5C0 9.11929 1.11929 8 2.5 8C3.88071 8 5 9.11929 5 10.5C5 11.8807 3.88071 13 2.5 13ZM2.5 21C1.11929 21 0 19.8807 0 18.5C0 17.1193 1.11929 16 2.5 16C3.88071 16 5 17.1193 5 18.5C5 19.8807 3.88071 21 2.5 21ZM10.5 21C9.11929 21 8 19.8807 8 18.5C8 17.1193 9.11929 16 10.5 16C11.8807 16 13 17.1193 13 18.5C13 19.8807 11.8807 21 10.5 21ZM16 18.5C16 19.8807 17.1193 21 18.5 21C19.8807 21 21 19.8807 21 18.5C21 17.1193 19.8807 16 18.5 16C17.1193 16 16 17.1193 16 18.5ZM10.5 13C9.11929 13 8 11.8807 8 10.5C8 9.11929 9.11929 8 10.5 8C11.8807 8 13 9.11929 13 10.5C13 11.8807 11.8807 13 10.5 13ZM8 2.5C8 3.88071 9.11929 5 10.5 5C11.8807 5 13 3.88071 13 2.5C13 1.11929 11.8807 0 10.5 0C9.11929 0 8 1.11929 8 2.5ZM18.5 13C17.1193 13 16 11.8807 16 10.5C16 9.11929 17.1193 8 18.5 8C19.8807 8 21 9.11929 21 10.5C21 11.8807 19.8807 13 18.5 13ZM16 2.5C16 3.88071 17.1193 5 18.5 5C19.8807 5 21 3.88071 21 2.5C21 1.11929 19.8807 0 18.5 0C17.1193 0 16 1.11929 16 2.5Z" ></path>
  </symbol>

  <symbol xmlns="http://www.w3.org/2000/svg" viewBox="0 0 22 26" id="bell">
    <path opacity="0.24" fill-rule="evenodd" clip-rule="evenodd" d="M3.66927 22.4545C1.64382 22.4545 0 20.8655 0 18.9091C0 17.6106 0.727122 16.4532 1.83849 15.835C1.83849 15.4764 1.83333 11.2256 1.83333 11.2256C1.83333 7.14185 4.66852 3.70365 8.55556 2.6765V2.36364C8.55556 1.05824 9.64997 0 11 0C12.35 0 13.4444 1.05824 13.4444 2.36364V2.6765C17.3323 3.70344 20.1667 7.14194 20.1667 11.2318V15.8454C21.2793 16.4664 22 17.619 22 18.9091C22 20.8681 20.3586 22.4545 18.3307 22.4545H14.6667C14.6646 24.413 13.0197 26 11 26C8.97496 26 7.33333 24.4143 7.33333 22.4571L3.66927 22.4545ZM9.77778 22.4545C9.77778 23.1083 10.3244 23.6364 11 23.6364C11.6709 23.6364 12.2201 23.1064 12.2222 22.4545H9.77778ZM17.7222 11.2318V16.9427C17.7222 17.2702 17.9922 17.6032 18.3181 17.6847L18.6385 17.7648C19.1733 17.8984 19.5556 18.3689 19.5556 18.9091C19.5556 19.5624 19.0088 20.0909 18.3307 20.0909H3.66927C2.99369 20.0909 2.44444 19.56 2.44444 18.9091C2.44444 18.3666 2.82517 17.8979 3.36026 17.7647L3.69151 17.6823C4.0153 17.6017 4.27778 17.2732 4.27778 16.9426V11.2256C4.27778 7.63639 7.28675 4.72727 11 4.72727C14.7148 4.72727 17.7222 7.63541 17.7222 11.2318Z" ></path>
  </symbol>

  <symbol xmlns="http://www.w3.org/2000/svg" viewBox="0 0 18 18" id="subscriptions">
    <path opacity="0.24" fill-rule="evenodd" clip-rule="evenodd" d="M3.9056 1C3.9056 0.447715 4.35471 0 4.901 0H12.9102C13.4599 0 13.9056 0.443865 13.9056 1C13.9056 1.55228 13.4565 2 12.9102 2H4.901C4.35125 2 3.9056 1.55614 3.9056 1ZM0.0101027 8.0949L0.811023 16.1041C0.917267 17.1665 1.83603 18 2.90122 18H14.91C15.9712 18 16.8943 17.1632 17.0002 16.1041L17.8011 8.0949C17.9152 6.95379 17.0495 6 15.9047 6H1.90647C0.759323 6 -0.103812 6.95576 0.0101027 8.0949ZM2.01101 8.00421L15.7998 8.0079L14.9056 16H2.9056L2.01101 8.00421ZM2.90122 3C2.35555 3 1.9056 3.44772 1.9056 4C1.9056 4.55614 2.35136 5 2.90122 5H14.91C15.4557 5 15.9056 4.55228 15.9056 4C15.9056 3.44386 15.4598 3 14.91 3H2.90122Z" ></path>
  </symbol>

  <symbol  xmlns="http://www.w3.org/2000/svg" viewBox="0 0 20 18" id="history">
    <path opacity="0.24" fill-rule="evenodd" clip-rule="evenodd" d="M6.36364 0C4.85741 0 3.63636 1.20746 3.63636 2.69744V12.6H0.909091C0.407014 12.6 0 13.0042 0 13.4991V15.3C0 16.7912 1.22411 18 2.72727 18H13.6364C15.1423 18 16.3636 16.7944 16.3636 15.3045V5.4H19.0909C19.5965 5.4 20 4.99813 20 4.5024V2.70439C20 1.21111 18.7799 0 17.2727 0H6.36364ZM5.3 16.2C5.40009 15.9193 5.45455 15.6172 5.45455 15.3026V2.69744C5.45455 2.20206 5.86107 1.8 6.36364 1.8C6.86402 1.8 7.27273 2.2043 7.27273 2.7V4.50094C7.27273 4.99748 7.67624 5.4 8.18182 5.4H14.5455V15.3045C14.5455 15.7991 14.1394 16.2 13.6364 16.2H5.3ZM1.81818 14.4V15.3C1.81818 15.7957 2.22689 16.2 2.72727 16.2C3.22984 16.2 3.63636 15.7979 3.63636 15.3026V14.4H1.81818ZM9.09091 3.6V2.7C9.09091 2.38443 9.03609 2.0815 8.9354 1.8H17.2727C17.7747 1.8 18.1818 2.20414 18.1818 2.70439V3.6H9.09091Z" ></path>
  </symbol>

  <symbol  xmlns="http://www.w3.org/2000/svg" viewBox="0 0 16 21" id="trending">
    <path opacity="0.24" fill-rule="evenodd" clip-rule="evenodd" d="M13.615 7.20041C15.1323 8.51081 16 10.1175 16 12.321C16 16.9118 12.4133 20.5268 8.0115 20.5268C3.60573 20.5268 0 16.9093 0 12.321C0 9.79412 0.547583 8.23242 2.15502 5.6366C2.66365 4.81522 3.89867 5.11434 3.99436 6.08209C4.08034 6.95167 4.34435 7.69187 4.729 8.25935C4.47244 5.19295 5.80372 1.74433 9.08631 0.10596C9.84629 -0.27335 10.6943 0.424512 10.4966 1.26648C9.98409 3.44851 10.5121 4.62244 11.8924 5.88709C11.926 5.91795 12.098 6.04489 12.3254 6.21279C12.7373 6.51686 13.3311 6.95524 13.615 7.20041ZM2.62075 9.00737C2.33897 9.66335 2 10.4525 2 12.321C2 15.7681 4.70107 18.478 8.0115 18.478C11.3159 18.478 14 15.7727 14 12.321C14 10.7811 13.4246 9.71578 12.3258 8.76679C12.1524 8.61699 11.7458 8.31456 11.3632 8.0299C11.0014 7.76076 10.6609 7.5075 10.559 7.41416C9.23392 6.20002 8.4238 4.9071 8.31376 3.18307C7.64377 3.85212 6.10424 5.93208 6.97198 10.0484C7.1065 10.6865 6.6318 11.289 5.99451 11.289C4.73006 11.289 3.48016 10.2984 2.71627 8.78204C2.68562 8.85634 2.65357 8.93095 2.62075 9.00737Z" ></path>
  </symbol>

  <symbol  xmlns="http://www.w3.org/2000/svg" viewBox="0 0 17 19" id="watch-later">
    <path opacity="0.24" fill-rule="evenodd" clip-rule="evenodd" d="M12.7263 16.7342C11.4999 17.5194 10.0515 17.973 8.5 17.973C6.94846 17.973 5.50008 17.5194 4.27374 16.7342L3.36555 18.3497C3.08967 18.8405 2.48163 19.0104 2 18.7248C1.52171 18.4412 1.35565 17.817 1.6335 17.3227C1.6335 17.3227 2.68265 15.4627 2.70994 15.4264C1.3407 13.9519 0.5 11.9552 0.5 9.75676C0.5 8.53312 0.760452 7.37196 1.22753 6.32856C0.476253 5.66926 0 4.68905 0 3.59459C0 1.60935 1.567 0 3.5 0C4.79331 0 5.92278 0.720433 6.52869 1.79186C7.15928 1.62774 7.81973 1.54054 8.5 1.54054C9.11512 1.54054 9.71402 1.61184 10.2893 1.74683C10.9011 0.700295 12.017 0 13.2921 0C15.2251 0 16.7921 1.60935 16.7921 3.59459C16.7921 4.61644 16.3769 5.5387 15.7104 6.19316C16.2164 7.27113 16.5 8.47993 16.5 9.75676C16.5 11.9552 15.6593 13.9519 14.2901 15.4264C14.3173 15.4627 15.3665 17.3227 15.3665 17.3227C15.6443 17.817 15.4783 18.4412 15 18.7248C14.5184 19.0104 13.9103 18.8405 13.6344 18.3497L12.7263 16.7342ZM7.5 5.64845C7.5 5.08135 7.94386 4.62162 8.5 4.62162C9.05229 4.62162 9.5 5.07733 9.5 5.64845V9.75676C9.5 10.324 9.05665 10.7838 8.50095 10.7838H6.49905C5.94729 10.7838 5.5 10.3279 5.5 9.75676C5.5 9.18955 5.94335 8.72973 6.49905 8.72973H7.5V5.64845ZM2 3.59459C2 2.74378 2.67157 2.05405 3.5 2.05405C3.93928 2.05405 4.3426 2.24978 4.62052 2.56955C3.73645 3.07397 2.95519 3.74545 2.3172 4.54247C2.11715 4.27879 2 3.9482 2 3.59459ZM14.7921 3.59459C14.7921 2.74378 14.1205 2.05405 13.2921 2.05405C12.8889 2.05405 12.5161 2.21892 12.2426 2.49324C13.1305 2.9768 13.9191 3.62706 14.569 4.4034C14.7112 4.1665 14.7921 3.8885 14.7921 3.59459ZM8.5 15.9189C5.18629 15.9189 2.5 13.16 2.5 9.75676C2.5 6.35349 5.18629 3.59459 8.5 3.59459C11.8137 3.59459 14.5 6.35349 14.5 9.75676C14.5 13.16 11.8137 15.9189 8.5 15.9189Z"></path>
  </symbol>

  <symbol  xmlns="http://www.w3.org/2000/svg" viewBox="0 0 20 16" id="library">
    <path opacity="0.24" fill-rule="evenodd" clip-rule="evenodd" d="M1.81377 0C0.818072 0 0 0.793984 0 1.77341V14.2266C0 15.2066 0.814396 16 1.819 16H18.181C19.185 16 20 15.2042 20 14.2225V4.44412C20 3.4608 19.1843 2.66667 18.1781 2.66667H10.0034L8.71574 0.742815C8.441 0.332343 7.81071 0 7.30762 0H1.81377ZM18.181 14.2222L1.81818 14.2266L1.81377 1.77778L7.27273 1.78212L8.48211 3.64019C8.818 4.14203 9.39005 4.44444 10.0034 4.44444L18.1818 4.44412L18.181 14.2222Z" ></path>
  </symbol>

  <symbol fill="none" xmlns="http://www.w3.org/2000/svg" viewBox="0 0 20 19" id="home">
    <path fill-rule="evenodd" clip-rule="evenodd" d="M1.55192 10.5921C1.19689 10.9455 0.621289 10.9455 0.266267 10.5921C-0.0887555 10.2388 -0.0887555 9.66595 0.266267 9.31262L9.35718 0.264999C9.7122 -0.0883329 10.2878 -0.0883329 10.6428 0.264999L19.7337 9.31262C20.0888 9.66595 20.0888 10.2388 19.7337 10.5921C19.3787 10.9455 18.8031 10.9455 18.4481 10.5921L18.1818 10.3274V17.1945C18.1818 18.1933 17.3689 19 16.3628 19H3.63716C2.63348 19 1.81818 18.1934 1.81818 17.1945V10.3274L1.55192 10.5921ZM3.63716 17.1905L6.36364 17.191V11.7597C6.36364 11.2612 6.77023 10.8571 7.27003 10.8571H12.73C13.2306 10.8571 13.6364 11.2609 13.6364 11.7597V17.1929L16.3636 17.1945V8.51944L10 2.19166L3.63632 8.51948C3.63613 10.2308 3.63716 17.1905 3.63716 17.1905ZM11.8182 12.6653V17.1923L8.18182 17.1914V12.6667L11.8182 12.6653Z" fill="#FF0000"></path>
  </symbol>


  <symbol  xmlns="http://www.w3.org/2000/svg" viewBox="0 0 14 8" id="show-more">
    <path opacity="0.24" d="M6.66931 5.25531L11.6193 0.305313C11.8704 0.0453564 12.2422 -0.0588996 12.5918 0.0326158C12.9415 0.124131 13.2145 0.397176 13.306 0.746806C13.3975 1.09644 13.2933 1.46824 13.0333 1.71931L7.37631 7.37631C6.98581 7.7667 6.35281 7.7667 5.96231 7.37631L0.305313 1.71931C0.0453564 1.46824 -0.0588996 1.09644 0.0326158 0.746806C0.124131 0.397176 0.397176 0.124131 0.746806 0.0326158C1.09644 -0.0588996 1.46824 0.0453564 1.71931 0.305313L6.66931 5.25531Z" ></path>
  </symbol>

  <symbol  xmlns="http://www.w3.org/2000/svg" viewBox="0 0 22 16" id="games">
    <path opacity="0.24" fill-rule="evenodd" clip-rule="evenodd" d="M12.9034 0.5233C12.1075 0.810958 11.7676 0.88899 10.9998 0.88899C10.232 0.88899 9.89216 0.810958 9.09627 0.5233L9.03409 0.500814C8.02943 0.137542 7.43229 0 6.44525 0C4.05055 0 1.85231 2.2826 0.942996 5.06478C0.245262 7.1996 0.0589768 8.56701 0 11.5385C0.0582506 14.4925 1.34092 15.9856 3.66063 16C5.11467 15.9917 6.11219 15.363 7.03418 14.2208C7.17642 14.0446 7.56758 13.5231 7.60944 13.4673L7.61308 13.4625C8.56208 12.235 9.54325 11.5652 11.0027 11.5556C12.4564 11.5652 13.4376 12.235 14.3866 13.4625L14.3902 13.4673C14.4321 13.5231 14.8232 14.0446 14.9655 14.2208C15.8875 15.363 16.885 15.9917 18.3278 16C20.6587 15.9856 21.9414 14.4925 21.9997 11.5727C21.9407 8.56701 21.7544 7.1996 21.0567 5.06478C20.1474 2.2826 17.9491 0 15.5544 0C14.5674 0 13.9702 0.137542 12.9656 0.500814L12.9034 0.5233ZM8.45597 2.18913C9.4419 2.54547 10.0813 2.66676 10.9998 2.66676C11.9183 2.66676 12.5578 2.54547 13.5437 2.18913L13.6061 2.16655C14.4238 1.87087 14.828 1.77778 15.5544 1.77778C16.9794 1.77778 18.6138 3.47492 19.309 5.60189C19.9465 7.55254 20.1108 8.75828 20.1667 11.5727C20.1263 13.5619 19.5656 14.2146 18.3273 14.2222C17.5536 14.2178 17.0194 13.8811 16.4091 13.125C16.3079 12.9996 16.0221 12.62 15.9044 12.4636L15.9043 12.4634L15.9041 12.4633L15.904 12.4631L15.9037 12.4627L15.9037 12.4627L15.8535 12.3961C14.5953 10.7687 13.164 9.79184 10.9941 9.77782C8.83563 9.79184 7.40436 10.7687 6.14621 12.3961L6.096 12.4626C5.97878 12.6183 5.69198 12.9994 5.59053 13.125C4.98023 13.8811 4.44608 14.2178 3.6611 14.2222C2.43407 14.2146 1.87336 13.5619 1.83299 11.5384C1.88885 8.75828 2.05311 7.55254 2.69066 5.60189C3.38582 3.47492 5.02024 1.77778 6.44525 1.77778C7.17164 1.77778 7.57582 1.87087 8.39355 2.16655L8.45597 2.18913ZM15.5832 5.77778C15.0769 5.77778 14.6665 5.37981 14.6665 4.88889C14.6665 4.39797 15.0769 4 15.5832 4C16.0894 4 16.4998 4.39797 16.4998 4.88889C16.4998 5.37981 16.0894 5.77778 15.5832 5.77778ZM14.6665 8.44444C14.6665 8.93536 15.0769 9.33333 15.5832 9.33333C16.0894 9.33333 16.4998 8.93536 16.4998 8.44444C16.4998 7.95352 16.0894 7.55556 15.5832 7.55556C15.0769 7.55556 14.6665 7.95352 14.6665 8.44444ZM17.4165 7.55556C16.9102 7.55556 16.4998 7.15759 16.4998 6.66667C16.4998 6.17575 16.9102 5.77778 17.4165 5.77778C17.9228 5.77778 18.3332 6.17575 18.3332 6.66667C18.3332 7.15759 17.9228 7.55556 17.4165 7.55556ZM12.8332 6.66667C12.8332 7.15759 13.2436 7.55556 13.7498 7.55556C14.2561 7.55556 14.6665 7.15759 14.6665 6.66667C14.6665 6.17575 14.2561 5.77778 13.7498 5.77778C13.2436 5.77778 12.8332 6.17575 12.8332 6.66667ZM6.4165 9.33333C4.89771 9.33333 3.6665 8.13943 3.6665 6.66667C3.6665 5.19391 4.89771 4 6.4165 4C7.93528 4 9.1665 5.19391 9.1665 6.66667C9.1665 8.13943 7.93528 9.33333 6.4165 9.33333ZM7.33316 6.66667C7.33316 7.15759 6.92276 7.55556 6.4165 7.55556C5.91024 7.55556 5.49983 7.15759 5.49983 6.66667C5.49983 6.17575 5.91024 5.77778 6.4165 5.77778C6.92276 5.77778 7.33316 6.17575 7.33316 6.66667Z" ></path>
  </symbol>

  <symbol  xmlns="http://www.w3.org/2000/svg" viewBox="0 0 18 20" id="music">
    <path opacity="0.24" fill-rule="evenodd" clip-rule="evenodd" d="M14.85 17.2729C16.5897 17.2729 18 15.8484 18 14.0911V0.92929C18.0016 0.854306 17.9939 0.777902 17.9762 0.701509C17.8626 0.212723 17.3782 -0.0904878 16.8943 0.0242693L5.22802 2.79094C4.82628 2.88621 4.55117 3.23961 4.5 3.63657V13.9428C4.09084 13.7464 3.63312 13.6366 3.15 13.6366C1.4103 13.6366 0 15.0611 0 16.8184C0 18.5757 1.4103 20.0002 3.15 20.0002C4.8897 20.0002 6.3 18.5757 6.3 16.8184V8.0407L16.2 5.6929V11.2155C15.7908 11.0192 15.3331 10.9093 14.85 10.9093C13.1103 10.9093 11.7 12.3338 11.7 14.0911C11.7 15.8484 13.1103 17.2729 14.85 17.2729ZM6.3 6.17308V4.40434L16.2 2.05654V3.82528L6.3 6.17308ZM16.2 14.0911C16.2 13.338 15.5956 12.7275 14.85 12.7275C14.1044 12.7275 13.5 13.338 13.5 14.0911C13.5 14.8442 14.1044 15.4548 14.85 15.4548C15.5956 15.4548 16.2 14.8442 16.2 14.0911ZM3.15 15.4548C3.89558 15.4548 4.5 16.0653 4.5 16.8184C4.5 17.5715 3.89558 18.182 3.15 18.182C2.40442 18.182 1.8 17.5715 1.8 16.8184C1.8 16.0653 2.40442 15.4548 3.15 15.4548Z" ></path>
  </symbol>

  <symbol  xmlns="http://www.w3.org/2000/svg" viewBox="0 0 18 17" id="liked-videos">
    <path opacity="0.24" fill-rule="evenodd" clip-rule="evenodd" d="M12.6 0C11.217 0 9.95536 0.530866 9 1.40391C8.04464 0.530866 6.78304 0 5.4 0C2.41766 0 0 2.46848 0 5.51351C0 9.95785 4.48072 14.2534 8.62049 16.7595C8.83009 16.8923 9.17315 16.8905 9.38216 16.7577C13.4946 14.2432 18 9.95763 18 5.51351C18 2.46848 15.5823 0 12.6 0ZM9.00509 14.8252C4.5546 11.8546 1.8 8.38441 1.8 5.51351C1.8 3.48349 3.41177 1.83784 5.4 1.83784C6.29958 1.83784 7.14325 2.17359 7.79955 2.77335L8.66561 3.56478C8.8528 3.73585 9.14971 3.73355 9.33439 3.56478L10.2004 2.77335C10.8567 2.17359 11.7004 1.83784 12.6 1.83784C14.5882 1.83784 16.2 3.48349 16.2 5.51351C16.2 8.45823 13.4557 11.8546 9.00509 14.8252Z" ></path>
  </symbol>

  <symbol  xmlns="http://www.w3.org/2000/svg" viewBox="0 0 19 18" id="favourites">
    <path opacity="0.24" fill-rule="evenodd" clip-rule="evenodd" d="M15.5882 16.1776C15.8046 17.4345 14.7118 18.2242 13.5793 17.6312C13.5793 17.6312 9.32641 15.4276 9.36773 15.4059L5.11778 17.6312C3.98444 18.2246 2.89263 17.4335 3.10892 16.1776C3.10892 16.1776 3.89901 11.4682 3.93244 11.5007L0.494159 8.16277C-0.422732 7.27264 -0.00467551 5.99401 1.26148 5.81077C1.26148 5.81077 6.00269 5.10388 5.98203 5.14558L8.107 0.857337C8.67367 -0.286213 10.0239 -0.285345 10.5901 0.857337C10.5901 0.857337 12.7302 5.1298 12.684 5.12312L17.4356 5.81077C18.7027 5.99415 19.1191 7.27331 18.2029 8.16277C18.2029 8.16277 14.7844 11.5102 14.7765 11.4644L15.5882 16.1776ZM5.09647 15.5573L8.50515 13.7718C9.0044 13.5104 9.6939 13.511 10.1919 13.7718L13.609 15.561L12.9495 11.7764C12.8542 11.2228 13.0679 10.5699 13.4708 10.1787L16.2242 7.50565L12.4175 6.95008C11.8593 6.8693 11.3019 6.46516 11.0528 5.96262L9.34969 2.52567L7.64427 5.96262C7.39464 6.46637 6.83646 6.8695 6.27962 6.95008L2.46854 7.50163L5.22632 10.1787C5.63022 10.5708 5.84269 11.2241 5.74757 11.7764L5.09647 15.5573Z" ></path>
  </symbol>

  <symbol  xmlns="http://www.w3.org/2000/svg" viewBox="0 0 19 20" id="settings">
    <path opacity="0.24" fill-rule="evenodd" clip-rule="evenodd" d="M13.4684 3.72984L12.7255 3.2963C12.7255 3.2963 11.9499 1.18529 11.8845 1.04241C11.6372 0.446706 10.9608 0 10.2828 0H8.42097C7.74577 0 7.07222 0.445749 6.80795 1.06812C6.75378 1.18551 5.98673 3.29574 5.98673 3.29574L5.25274 3.73208C5.25274 3.73208 3.01723 3.34267 2.86067 3.32789C2.22115 3.24416 1.49608 3.60662 1.15706 4.19382L0.22616 5.80618C-0.11144 6.39092 -0.0621848 7.1971 0.344673 7.73715C0.419296 7.84283 1.8639 9.57203 1.8639 9.57203C1.8639 9.57203 1.85186 9.85686 1.85186 10C1.85186 10.303 1.86248 10.429 1.86248 10.429C1.86248 10.429 0.419296 12.1572 0.328229 12.2853C-0.0641449 12.7973 -0.112893 13.6066 0.22616 14.1938L1.15706 15.8062C1.49462 16.3909 2.21732 16.7514 2.88838 16.6691C3.01723 16.6573 5.23083 16.2672 5.23083 16.2672L5.97602 16.6921C5.97602 16.6921 6.75378 18.8145 6.81919 18.9574C7.06642 19.5532 7.74286 20 8.42097 20H10.2828C10.9579 20 11.6314 19.5544 11.8957 18.9321C11.9499 18.8147 12.7255 16.7 12.7255 16.7L13.4565 16.269C13.4565 16.269 15.8311 16.6709 15.8364 16.6714C16.4824 16.7558 17.2076 16.3934 17.5467 15.8062L18.4776 14.1938C18.8151 13.6091 18.766 12.803 18.3592 12.263C18.2846 12.1573 16.8393 10.4365 16.8393 10.4365C16.8393 10.4365 16.8519 10.146 16.8519 10C16.8519 9.69704 16.8429 9.56952 16.8429 9.56952C16.8429 9.56952 18.2846 7.8427 18.3757 7.71452C18.7679 7.20254 18.8166 6.39338 18.4776 5.80618L17.5467 4.19382C17.2091 3.60908 16.4863 3.24864 15.8151 3.33097C15.6863 3.34276 13.4684 3.72984 13.4684 3.72984ZM10.9423 4.30503L11.0766 4.75439L11.508 4.93843C11.9156 5.11235 12.3007 5.33528 12.6549 5.60181L13.0302 5.88422L13.4872 5.77567C14.151 5.618 15.7116 5.35656 15.8613 5.33828C15.9481 5.32769 16.6964 6.62368 16.6438 6.69352C16.5532 6.81399 15.5466 8.03475 15.0782 8.5308L14.7565 8.8714L14.8124 9.33653C14.8386 9.55534 14.8519 9.77673 14.8519 10C14.8519 10.2233 14.8386 10.4447 14.8124 10.6635L14.7565 11.1286L15.0782 11.4692C15.5466 11.9652 16.5532 13.186 16.6438 13.3065C16.6964 13.3763 15.9126 14.668 15.8613 14.6617C15.7116 14.6434 14.151 14.382 13.4872 14.2243L13.0302 14.1158L12.6549 14.3982C12.3007 14.6647 11.9156 14.8877 11.508 15.0616L11.0766 15.2456L10.9423 15.695C10.747 16.3484 10.1933 17.8297 10.1343 17.9684C10.1001 18.0487 8.60366 18.0487 8.56947 17.9683C8.5105 17.8297 7.95692 16.3484 7.76164 15.6951L7.62731 15.2457L7.1959 15.0616C6.78824 14.8877 6.40322 14.6648 6.04897 14.3983L5.67364 14.1159L5.21666 14.2245C4.55278 14.3822 2.99208 14.6435 2.84241 14.6618C2.75565 14.6724 2.00741 13.3763 2.05996 13.3065C2.15061 13.186 3.15718 11.9654 3.62557 11.4694L3.94723 11.1288L3.89139 10.6637C3.86512 10.4448 3.85186 10.2233 3.85186 10C3.85186 9.77667 3.86512 9.55522 3.89139 9.33635L3.94723 8.87119L3.62557 8.53058C3.15718 8.0346 2.15061 6.81396 2.05996 6.69349C2.00741 6.62365 2.75565 5.32763 2.84241 5.33821C2.99208 5.35647 4.55278 5.61785 5.21666 5.77554L5.67364 5.88408L6.04897 5.6017C6.40322 5.33517 6.78824 5.11226 7.1959 4.93836L7.62731 4.75432L7.76164 4.30495C7.95692 3.65163 8.5105 2.17034 8.56947 2.03168C8.60366 1.9513 10.1001 1.95127 10.1343 2.03164C10.1933 2.1703 10.747 3.65163 10.9423 4.30503ZM9.35186 13C7.69501 13 6.35186 11.6569 6.35186 10C6.35186 8.34315 7.69501 7 9.35186 7C11.0087 7 12.3519 8.34315 12.3519 10C12.3519 11.6569 11.0087 13 9.35186 13ZM10.3519 10C10.3519 10.5523 9.90415 11 9.35186 11C8.79958 11 8.35186 10.5523 8.35186 10C8.35186 9.44771 8.79958 9 9.35186 9C9.90415 9 10.3519 9.44771 10.3519 10Z" ></path>
  </symbol>

  <symbol fill="none" xmlns="http://www.w3.org/2000/svg" viewBox="0 0 176 33" id="icons">
    <path opacity="0.24" fill-rule="evenodd" clip-rule="evenodd" d="M151.669 29.4545C149.644 29.4545 148 27.8655 148 25.9091C148 24.6106 148.727 23.4532 149.838 22.835C149.838 22.4764 149.833 18.2256 149.833 18.2256C149.833 14.1418 152.669 10.7037 156.556 9.6765V9.36364C156.556 8.05824 157.65 7 159 7C160.35 7 161.444 8.05824 161.444 9.36364V9.6765C165.332 10.7034 168.167 14.1419 168.167 18.2318V22.8454C169.279 23.4664 170 24.619 170 25.9091C170 27.8681 168.359 29.4545 166.331 29.4545H162.667C162.665 31.413 161.02 33 159 33C156.975 33 155.333 31.4143 155.333 29.4571L151.669 29.4545ZM157.778 29.4545C157.778 30.1083 158.324 30.6364 159 30.6364C159.671 30.6364 160.22 30.1064 160.222 29.4545H157.778ZM165.722 18.2318V23.9427C165.722 24.2702 165.992 24.6032 166.318 24.6847L166.639 24.7648C167.173 24.8984 167.556 25.3689 167.556 25.9091C167.556 26.5624 167.009 27.0909 166.331 27.0909H151.669C150.994 27.0909 150.444 26.56 150.444 25.9091C150.444 25.3666 150.825 24.8979 151.36 24.7647L151.692 24.6823C152.015 24.6017 152.278 24.2732 152.278 23.9426V18.2256C152.278 14.6364 155.287 11.7273 159 11.7273C162.715 11.7273 165.722 14.6354 165.722 18.2318Z" fill="black"></path>
    <path opacity="0.24" fill-rule="evenodd" clip-rule="evenodd" d="M77 12.5C77 13.8807 78.1193 15 79.5 15C80.8807 15 82 13.8807 82 12.5C82 11.1193 80.8807 10 79.5 10C78.1193 10 77 11.1193 77 12.5ZM79.5 23C78.1193 23 77 21.8807 77 20.5C77 19.1193 78.1193 18 79.5 18C80.8807 18 82 19.1193 82 20.5C82 21.8807 80.8807 23 79.5 23ZM79.5 31C78.1193 31 77 29.8807 77 28.5C77 27.1193 78.1193 26 79.5 26C80.8807 26 82 27.1193 82 28.5C82 29.8807 80.8807 31 79.5 31ZM87.5 31C86.1193 31 85 29.8807 85 28.5C85 27.1193 86.1193 26 87.5 26C88.8807 26 90 27.1193 90 28.5C90 29.8807 88.8807 31 87.5 31ZM93 28.5C93 29.8807 94.1193 31 95.5 31C96.8807 31 98 29.8807 98 28.5C98 27.1193 96.8807 26 95.5 26C94.1193 26 93 27.1193 93 28.5ZM87.5 23C86.1193 23 85 21.8807 85 20.5C85 19.1193 86.1193 18 87.5 18C88.8807 18 90 19.1193 90 20.5C90 21.8807 88.8807 23 87.5 23ZM85 12.5C85 13.8807 86.1193 15 87.5 15C88.8807 15 90 13.8807 90 12.5C90 11.1193 88.8807 10 87.5 10C86.1193 10 85 11.1193 85 12.5ZM95.5 23C94.1193 23 93 21.8807 93 20.5C93 19.1193 94.1193 18 95.5 18C96.8807 18 98 19.1193 98 20.5C98 21.8807 96.8807 23 95.5 23ZM93 12.5C93 13.8807 94.1193 15 95.5 15C96.8807 15 98 13.8807 98 12.5C98 11.1193 96.8807 10 95.5 10C94.1193 10 93 11.1193 93 12.5Z" fill="black"></path>
    <path d="M166 19C170.971 19 175 14.9706 175 10C175 5.02944 170.971 1 166 1C161.029 1 157 5.02944 157 10C157 14.9706 161.029 19 166 19Z" fill="#FF0000" stroke="white"></path>
    <path d="M167.92 9.608C168.424 9.744 168.808 9.992 169.072 10.352C169.344 10.712 169.48 11.156 169.48 11.684C169.48 12.428 169.204 13.016 168.652 13.448C168.108 13.88 167.372 14.096 166.444 14.096C165.868 14.096 165.312 14.008 164.776 13.832C164.248 13.656 163.812 13.412 163.468 13.1L163.996 11.972C164.756 12.564 165.552 12.86 166.384 12.86C166.928 12.86 167.332 12.752 167.596 12.536C167.868 12.32 168.004 11.992 168.004 11.552C168.004 11.12 167.868 10.804 167.596 10.604C167.324 10.396 166.904 10.292 166.336 10.292H165.208V9.056H166.132C167.236 9.056 167.788 8.636 167.788 7.796C167.788 7.404 167.668 7.104 167.428 6.896C167.188 6.688 166.852 6.584 166.42 6.584C165.652 6.584 164.884 6.88 164.116 7.472L163.6 6.344C163.944 6.04 164.376 5.8 164.896 5.624C165.424 5.44 165.964 5.348 166.516 5.348C167.356 5.348 168.024 5.556 168.52 5.972C169.024 6.38 169.276 6.928 169.276 7.616C169.268 8.088 169.144 8.5 168.904 8.852C168.672 9.196 168.344 9.448 167.92 9.608Z" fill="white"></path>
    <path opacity="0.24" fill-rule="evenodd" clip-rule="evenodd" d="M22.2082 12.8677L18.4091 15.6818V12.5027C18.4091 11.1181 17.3104 10 15.955 10H2.4541C1.09644 10 0 11.1205 0 12.5027V27.4973C0 28.8819 1.09874 30 2.4541 30H15.955C17.3126 30 18.4091 28.8795 18.4091 27.4973V24.3182L22.2082 27.1323C22.48 27.3336 22.9801 27.5 23.32 27.5H25.7691C26.456 27.5 27 26.939 27 26.2469V13.7531C27 13.0606 26.4489 12.5 25.7691 12.5H23.32C22.9732 12.5 22.4823 12.6646 22.2082 12.8677ZM2.45455 27.5V12.5H15.9545V27.5H2.45455ZM4.90909 23.75C4.90909 23.0596 5.45956 22.5 6.13996 22.5H12.2691C12.9489 22.5 13.5 23.0548 13.5 23.75C13.5 24.4404 12.9495 25 12.2691 25H6.13996C5.46017 25 4.90909 24.4452 4.90909 23.75ZM23.5108 24.9998L18.424 21.238L18.4243 18.7618L23.5073 14.9966L24.5455 14.9982V24.9988L23.5108 24.9998Z" fill="black"></path>
  </symbol>
  
  <symbol fill="none" xmlns="http://www.w3.org/2000/svg" viewBox="0 0 66 28" id="arrows">
    <path opacity="0.24" d="M52 28C59.732 28 66 21.732 66 14C66 6.26801 59.732 0 52 0C44.268 0 38 6.26801 38 14C38 21.732 44.268 28 52 28Z" fill="black"></path>
    <path fill-rule="evenodd" clip-rule="evenodd" d="M49.9983 8.66611L49.4637 9.20513C49.2879 9.39201 49.2 9.61012 49.2 9.8592C49.2 10.1133 49.2879 10.329 49.4637 10.5063L52.9281 14L49.4637 17.4937C49.288 17.671 49.2 17.8867 49.2 18.1407C49.2 18.3899 49.288 18.608 49.4637 18.7949L49.9984 19.3268C50.1789 19.5089 50.3952 19.6 50.6471 19.6C50.9037 19.6 51.1175 19.5089 51.2886 19.3268L55.9291 14.647C56.1097 14.4744 56.2 14.2589 56.2 14C56.2 13.746 56.1097 13.5279 55.9291 13.3459L51.2886 8.66611C51.1127 8.48876 50.8989 8.4 50.6471 8.4C50.3999 8.4 50.1837 8.48876 49.9983 8.66611Z" fill="white"></path>
    <path opacity="0.24" d="M14 28C21.732 28 28 21.732 28 14C28 6.26801 21.732 0 14 0C6.26801 0 0 6.26801 0 14C0 21.732 6.26801 28 14 28Z" fill="black"></path>
    <path fill-rule="evenodd" clip-rule="evenodd" d="M16.0017 8.66611L16.5363 9.20513C16.7121 9.39201 16.8 9.61012 16.8 9.8592C16.8 10.1133 16.7121 10.329 16.5363 10.5063L13.0719 14L16.5363 17.4937C16.712 17.671 16.8 17.8867 16.8 18.1407C16.8 18.3899 16.712 18.608 16.5363 18.7949L16.0016 19.3268C15.8211 19.5089 15.6048 19.6 15.3529 19.6C15.0963 19.6 14.8825 19.5089 14.7114 19.3268L10.0709 14.647C9.89034 14.4744 9.80005 14.2589 9.80005 14C9.80005 13.746 9.89034 13.5279 10.0709 13.3459L14.7114 8.66611C14.8873 8.48876 15.1011 8.4 15.3529 8.4C15.6001 8.4 15.8163 8.48876 16.0017 8.66611Z" fill="white"></path>
  </symbol>

  <symbol fill="none" xmlns="http://www.w3.org/2000/svg" viewBox="0 0 154 40" id="subscribe-button">
    <rect width="154" height="40" rx="20" fill="#FF0000"></rect>
    <path d="M25.6803 26.128C25.0936 26.128 24.5443 26.08 24.0323 25.984C23.5203 25.8773 23.0456 25.7173 22.6083 25.504C22.1709 25.28 21.7763 25.008 21.4243 24.688L21.9203 23.68C22.4963 24.16 23.0723 24.5013 23.6483 24.704C24.2349 24.9067 24.9176 25.008 25.6963 25.008C26.6029 25.008 27.3069 24.832 27.8083 24.48C28.3096 24.1173 28.5603 23.6107 28.5603 22.96C28.5603 22.5653 28.4323 22.2507 28.1763 22.016C27.9309 21.7707 27.5896 21.5787 27.1523 21.44C26.7256 21.2907 26.2403 21.152 25.6963 21.024C25.1523 20.9067 24.6349 20.7733 24.1443 20.624C23.6536 20.464 23.2163 20.2667 22.8323 20.032C22.4589 19.7973 22.1656 19.4987 21.9523 19.136C21.7389 18.7733 21.6323 18.32 21.6323 17.776C21.6323 17.1253 21.8029 16.5547 22.1443 16.064C22.4856 15.5627 22.9656 15.1733 23.5843 14.896C24.2029 14.6187 24.9336 14.48 25.7763 14.48C26.2989 14.48 26.8003 14.5387 27.2803 14.656C27.7603 14.7627 28.2029 14.9227 28.6083 15.136C29.0243 15.3493 29.3923 15.6107 29.7123 15.92L29.2003 16.928C28.6776 16.4693 28.1389 16.1333 27.5843 15.92C27.0296 15.7067 26.4269 15.6 25.7763 15.6C24.8909 15.6 24.1976 15.7867 23.6963 16.16C23.1949 16.5333 22.9443 17.056 22.9443 17.728C22.9443 18.144 23.0563 18.48 23.2803 18.736C23.5043 18.992 23.8189 19.2 24.2243 19.36C24.6296 19.5093 25.0936 19.648 25.6163 19.776C26.1709 19.904 26.7043 20.0427 27.2163 20.192C27.7283 20.3413 28.1816 20.528 28.5763 20.752C28.9816 20.9653 29.3016 21.248 29.5363 21.6C29.7709 21.9413 29.8883 22.3787 29.8883 22.912C29.8883 23.5627 29.7176 24.128 29.3763 24.608C29.0349 25.088 28.5496 25.4613 27.9203 25.728C27.2909 25.9947 26.5443 26.128 25.6803 26.128ZM34.721 26.112C33.761 26.112 33.0357 25.8453 32.545 25.312C32.065 24.7787 31.825 23.9893 31.825 22.944V17.952H33.121V22.912C33.121 23.6373 33.2703 24.1707 33.569 24.512C33.8677 24.8533 34.321 25.024 34.929 25.024C35.6437 25.024 36.2197 24.7947 36.657 24.336C37.0943 23.8773 37.313 23.264 37.313 22.496V17.952H38.609V26H37.345V24.256L37.537 24.16C37.3237 24.8 36.961 25.2853 36.449 25.616C35.9477 25.9467 35.3717 26.112 34.721 26.112ZM41.1074 26V14.224H42.4034V20.016L42.2274 19.856C42.4087 19.1947 42.7554 18.6827 43.2674 18.32C43.7794 17.9467 44.398 17.76 45.1234 17.76C45.838 17.76 46.462 17.9307 46.9954 18.272C47.5287 18.6133 47.9447 19.0933 48.2434 19.712C48.5527 20.3307 48.7074 21.0613 48.7074 21.904C48.7074 22.7467 48.5527 23.488 48.2434 24.128C47.9447 24.7573 47.5234 25.248 46.9794 25.6C46.446 25.9413 45.8274 26.112 45.1234 26.112C44.398 26.112 43.7794 25.9307 43.2674 25.568C42.7554 25.2053 42.4087 24.688 42.2274 24.016L42.4034 23.84V26H41.1074ZM44.8834 25.04C45.662 25.04 46.27 24.768 46.7074 24.224C47.1447 23.6693 47.3634 22.896 47.3634 21.904C47.3634 20.9333 47.1447 20.1813 46.7074 19.648C46.27 19.1147 45.662 18.848 44.8834 18.848C44.0834 18.848 43.47 19.12 43.0434 19.664C42.6167 20.1973 42.4034 20.9547 42.4034 21.936C42.4034 22.928 42.6167 23.696 43.0434 24.24C43.47 24.7733 44.0834 25.04 44.8834 25.04ZM53.4211 26.112C52.0665 26.112 50.9945 25.7653 50.2051 25.072L50.6371 24.112C51.0638 24.4427 51.5011 24.688 51.9491 24.848C52.4078 24.9973 52.9145 25.072 53.4691 25.072C54.0771 25.072 54.5358 24.9707 54.8451 24.768C55.1651 24.5547 55.3251 24.2507 55.3251 23.856C55.3251 23.536 55.2185 23.2853 55.0051 23.104C54.7918 22.912 54.4398 22.7573 53.9491 22.64L52.5891 22.32C51.9171 22.1707 51.3945 21.904 51.0211 21.52C50.6585 21.136 50.4771 20.6773 50.4771 20.144C50.4771 19.6747 50.6051 19.264 50.8611 18.912C51.1171 18.5493 51.4745 18.2667 51.9331 18.064C52.3918 17.8613 52.9358 17.76 53.5651 17.76C54.1305 17.76 54.6638 17.8507 55.1651 18.032C55.6665 18.2133 56.0878 18.4747 56.4291 18.816L55.9971 19.76C55.6131 19.44 55.2185 19.2053 54.8131 19.056C54.4185 18.896 54.0025 18.816 53.5651 18.816C52.9891 18.816 52.5411 18.928 52.2211 19.152C51.9118 19.376 51.7571 19.68 51.7571 20.064C51.7571 20.3947 51.8531 20.656 52.0451 20.848C52.2478 21.04 52.5678 21.1893 53.0051 21.296L54.3651 21.632C55.1225 21.792 55.6771 22.0587 56.0291 22.432C56.3918 22.7947 56.5731 23.2587 56.5731 23.824C56.5731 24.5173 56.2905 25.072 55.7251 25.488C55.1598 25.904 54.3918 26.112 53.4211 26.112ZM62.0146 26.112C61.2253 26.112 60.5426 25.9413 59.9666 25.6C59.3906 25.2587 58.9426 24.7787 58.6226 24.16C58.3133 23.5413 58.1586 22.8107 58.1586 21.968C58.1586 21.136 58.3186 20.4053 58.6386 19.776C58.9586 19.136 59.412 18.64 59.9986 18.288C60.5853 17.936 61.2786 17.76 62.0786 17.76C62.6226 17.76 63.1453 17.856 63.6466 18.048C64.1586 18.2293 64.58 18.4853 64.9106 18.816L64.4786 19.776C64.084 19.4667 63.6946 19.2373 63.3106 19.088C62.9373 18.928 62.548 18.848 62.1426 18.848C61.332 18.848 60.6866 19.12 60.2066 19.664C59.7373 20.208 59.5026 20.976 59.5026 21.968C59.5026 22.9493 59.7373 23.7067 60.2066 24.24C60.676 24.7733 61.3213 25.04 62.1426 25.04C62.5373 25.04 62.9266 24.9653 63.3106 24.816C63.6946 24.656 64.084 24.4213 64.4786 24.112L64.9106 25.072C64.5693 25.392 64.1373 25.648 63.6146 25.84C63.1026 26.0213 62.5693 26.112 62.0146 26.112ZM66.5605 26V20.208C66.5605 19.8347 66.5498 19.4613 66.5285 19.088C66.5178 18.704 66.4858 18.3253 66.4325 17.952H67.6645L67.8405 19.936L67.6645 19.888C67.8138 19.184 68.1338 18.656 68.6245 18.304C69.1258 17.9413 69.6858 17.76 70.3045 17.76C70.4432 17.76 70.5712 17.7707 70.6885 17.792C70.8165 17.8027 70.9338 17.824 71.0405 17.856L71.0085 19.04C70.7632 18.9547 70.4805 18.912 70.1605 18.912C69.6058 18.912 69.1578 19.0347 68.8165 19.28C68.4858 19.5253 68.2405 19.84 68.0805 20.224C67.9312 20.5973 67.8565 20.992 67.8565 21.408V26H66.5605ZM72.3574 26V17.952H73.6534V26H72.3574ZM72.2294 14.544H73.8134V16.016H72.2294V14.544ZM76.1699 26V14.224H77.4659V20.016L77.2899 19.856C77.4712 19.1947 77.8179 18.6827 78.3299 18.32C78.8419 17.9467 79.4605 17.76 80.1859 17.76C80.9005 17.76 81.5245 17.9307 82.0579 18.272C82.5912 18.6133 83.0072 19.0933 83.3059 19.712C83.6152 20.3307 83.7699 21.0613 83.7699 21.904C83.7699 22.7467 83.6152 23.488 83.3059 24.128C83.0072 24.7573 82.5859 25.248 82.0419 25.6C81.5085 25.9413 80.8899 26.112 80.1859 26.112C79.4605 26.112 78.8419 25.9307 78.3299 25.568C77.8179 25.2053 77.4712 24.688 77.2899 24.016L77.4659 23.84V26H76.1699ZM79.9459 25.04C80.7245 25.04 81.3325 24.768 81.7699 24.224C82.2072 23.6693 82.4259 22.896 82.4259 21.904C82.4259 20.9333 82.2072 20.1813 81.7699 19.648C81.3325 19.1147 80.7245 18.848 79.9459 18.848C79.1459 18.848 78.5325 19.12 78.1059 19.664C77.6792 20.1973 77.4659 20.9547 77.4659 21.936C77.4659 22.928 77.6792 23.696 78.1059 24.24C78.5325 24.7733 79.1459 25.04 79.9459 25.04ZM92.3556 25.04C92.0036 25.3707 91.5503 25.632 90.9956 25.824C90.4516 26.016 89.8916 26.112 89.3156 26.112C88.4836 26.112 87.7636 25.9467 87.1556 25.616C86.5583 25.2853 86.0943 24.8107 85.7636 24.192C85.4436 23.5627 85.2836 22.816 85.2836 21.952C85.2836 21.12 85.4436 20.3893 85.7636 19.76C86.0836 19.1307 86.5263 18.64 87.0916 18.288C87.6676 17.936 88.329 17.76 89.0756 17.76C89.7903 17.76 90.4036 17.92 90.9156 18.24C91.4276 18.5493 91.817 18.9973 92.0836 19.584C92.361 20.1707 92.4996 20.8747 92.4996 21.696V21.936H86.4196V21.088H91.7636L91.3476 21.68C91.369 20.7413 91.1823 20.0213 90.7876 19.52C90.4036 19.0187 89.8383 18.768 89.0916 18.768C88.313 18.768 87.6996 19.0453 87.2516 19.6C86.8143 20.144 86.5956 20.9013 86.5956 21.872C86.5956 22.9173 86.825 23.7067 87.2836 24.24C87.753 24.7733 88.4356 25.04 89.3316 25.04C89.801 25.04 90.249 24.9653 90.6756 24.816C91.113 24.656 91.529 24.416 91.9236 24.096L92.3556 25.04ZM98.7186 26V25.008L102.703 20.592C103.236 19.9947 103.625 19.456 103.871 18.976C104.116 18.496 104.239 18.016 104.239 17.536C104.239 16.9067 104.057 16.4267 103.695 16.096C103.332 15.7547 102.815 15.584 102.143 15.584C101.588 15.584 101.044 15.696 100.511 15.92C99.9773 16.1333 99.444 16.4587 98.9106 16.896L98.4146 15.888C98.8626 15.4613 99.428 15.12 100.111 14.864C100.793 14.608 101.481 14.48 102.175 14.48C102.868 14.48 103.465 14.6027 103.967 14.848C104.479 15.0827 104.873 15.424 105.151 15.872C105.428 16.32 105.567 16.8533 105.567 17.472C105.567 18.1227 105.417 18.752 105.119 19.36C104.831 19.9573 104.345 20.6293 103.663 21.376L99.8226 25.536L99.7266 24.896H106.047V26H98.7186ZM108.008 24.352H109.656V26H108.008V24.352ZM115.376 26.112C114.64 26.112 113.93 25.9893 113.248 25.744C112.576 25.4987 112.005 25.152 111.536 24.704L112.048 23.696C112.56 24.1333 113.088 24.464 113.632 24.688C114.176 24.9013 114.746 25.008 115.344 25.008C116.154 25.008 116.768 24.8267 117.184 24.464C117.61 24.1013 117.824 23.568 117.824 22.864C117.824 22.16 117.605 21.6373 117.168 21.296C116.73 20.944 116.074 20.768 115.2 20.768H113.888V19.664H114.944C115.786 19.664 116.432 19.4773 116.88 19.104C117.328 18.7307 117.552 18.1973 117.552 17.504C117.552 16.8853 117.365 16.4107 116.992 16.08C116.629 15.7493 116.112 15.584 115.44 15.584C114.874 15.584 114.325 15.696 113.792 15.92C113.258 16.1333 112.73 16.4587 112.208 16.896L111.712 15.888C112.17 15.4507 112.736 15.1093 113.408 14.864C114.08 14.608 114.773 14.48 115.488 14.48C116.17 14.48 116.768 14.6027 117.28 14.848C117.792 15.0827 118.181 15.4187 118.448 15.856C118.725 16.2933 118.864 16.8107 118.864 17.408C118.864 18.112 118.677 18.7147 118.304 19.216C117.941 19.7067 117.44 20.0427 116.8 20.224L116.752 20.064C117.52 20.224 118.106 20.5493 118.512 21.04C118.917 21.5307 119.12 22.1547 119.12 22.912C119.12 23.904 118.784 24.688 118.112 25.264C117.44 25.8293 116.528 26.112 115.376 26.112ZM121.529 26V20.208C121.529 19.8347 121.519 19.4613 121.497 19.088C121.487 18.704 121.455 18.3253 121.401 17.952H122.633L122.777 19.616L122.617 19.728C122.809 19.0987 123.14 18.6133 123.609 18.272C124.089 17.9307 124.655 17.76 125.305 17.76C126.084 17.76 126.687 17.952 127.113 18.336C127.551 18.72 127.828 19.3067 127.945 20.096L127.561 19.888C127.732 19.2373 128.073 18.72 128.585 18.336C129.108 17.952 129.732 17.76 130.457 17.76C131.343 17.76 132.009 18.0267 132.457 18.56C132.905 19.0827 133.129 19.8773 133.129 20.944V26H131.833V21.008C131.833 20.2613 131.7 19.7173 131.433 19.376C131.167 19.024 130.745 18.848 130.169 18.848C129.497 18.848 128.964 19.0773 128.569 19.536C128.185 19.9947 127.993 20.6187 127.993 21.408V26H126.697V21.008C126.697 20.2613 126.559 19.7173 126.281 19.376C126.015 19.024 125.593 18.848 125.017 18.848C124.335 18.848 123.796 19.0773 123.401 19.536C123.017 19.9947 122.825 20.6187 122.825 21.408V26H121.529Z" fill="white"></path>
  </symbol>
</svg>